name ./resultDataOpenSim/trcMotMarkerGrf/sub09/grf-01-05.mot
datacolumns 19
datarows 25
range 0.46400000 0.56000000
endheader

                time	     ground_force_vx	     ground_force_vy	     ground_force_vz	     ground_force_px	     ground_force_py	     ground_force_pz	   l_ground_force_vx	   l_ground_force_vy	   l_ground_force_vz	   l_ground_force_px	   l_ground_force_py	   l_ground_force_pz	     ground_torque_x	     ground_torque_y	     ground_torque_z	   l_ground_torque_x	   l_ground_torque_y	   l_ground_torque_z	
          0.46400000	         19.62438925	        348.07997084	         -5.94280657	         -0.63827499	          0.00000000	          0.10910312	          0.00000000	          0.00000000	          0.00000000	          0.00000000	          0.00000000	          0.00000000	          0.00000000	          4.29355783	          0.00000000	          0.00000000	          0.00000000	          0.00000000	
          0.46800000	         23.34521742	        357.77384213	         -8.08578018	         -0.63797355	          0.00000000	          0.10962220	          0.00000000	          0.00000000	          0.00000000	          0.00000000	          0.00000000	          0.00000000	          0.00000000	          4.27125318	          0.00000000	          0.00000000	          0.00000000	          0.00000000	
          0.47200000	         27.00502940	        368.10628843	        -10.85033095	         -0.63750297	          0.00000000	          0.11018423	          0.00000000	          0.00000000	          0.00000000	          0.00000000	          0.00000000	          0.00000000	          0.00000000	          4.15357500	          0.00000000	          0.00000000	          0.00000000	          0.00000000	
          0.47600000	         30.69943110	        378.97391634	        -14.14329258	         -0.63687881	          0.00000000	          0.11077435	          0.00000000	          0.00000000	          0.00000000	          0.00000000	          0.00000000	          0.00000000	          0.00000000	          3.94962829	          0.00000000	          0.00000000	          0.00000000	          0.00000000	
          0.48000000	         34.49004438	        390.32806098	        -17.75282691	         -0.63610885	          0.00000000	          0.11135727	          0.00000000	          0.00000000	          0.00000000	          0.00000000	          0.00000000	          0.00000000	          0.00000000	          3.68474858	          0.00000000	          0.00000000	          0.00000000	          0.00000000	
          0.48400000	         38.37776283	        402.20346024	        -21.37148647	         -0.63521669	          0.00000000	          0.11188502	          0.00000000	          0.00000000	          0.00000000	          0.00000000	          0.00000000	          0.00000000	          0.00000000	          3.39801419	          0.00000000	          0.00000000	          0.00000000	          0.00000000	
          0.48800000	         42.30133489	        414.72682459	        -24.65358456	         -0.63425070	          0.00000000	          0.11229956	          0.00000000	          0.00000000	          0.00000000	          0.00000000	          0.00000000	          0.00000000	          0.00000000	          3.13717725	          0.00000000	          0.00000000	          0.00000000	          0.00000000	
          0.49200000	         46.15918835	        428.08094606	        -27.28789044	         -0.63324910	          0.00000000	          0.11254646	          0.00000000	          0.00000000	          0.00000000	          0.00000000	          0.00000000	          0.00000000	          0.00000000	          2.95155266	          0.00000000	          0.00000000	          0.00000000	          0.00000000	
          0.49600000	         49.84709727	        442.44394517	        -29.05254936	         -0.63223256	          0.00000000	          0.11259288	          0.00000000	          0.00000000	          0.00000000	          0.00000000	          0.00000000	          0.00000000	          0.00000000	          2.88396064	          0.00000000	          0.00000000	          0.00000000	          0.00000000	
          0.50000000	         53.29992372	        457.94528581	        -29.83840135	         -0.63121438	          0.00000000	          0.11242917	          0.00000000	          0.00000000	          0.00000000	          0.00000000	          0.00000000	          0.00000000	          0.00000000	          2.96320366	          0.00000000	          0.00000000	          0.00000000	          0.00000000	
          0.50400000	         56.52200314	        474.65529336	        -29.65511419	         -0.63019669	          0.00000000	          0.11206489	          0.00000000	          0.00000000	          0.00000000	          0.00000000	          0.00000000	          0.00000000	          0.00000000	          3.19866617	          0.00000000	          0.00000000	          0.00000000	          0.00000000	
          0.50800000	         59.59027963	        492.58913204	        -28.62434773	         -0.62920068	          0.00000000	          0.11153687	          0.00000000	          0.00000000	          0.00000000	          0.00000000	          0.00000000	          0.00000000	          0.00000000	          3.57841172	          0.00000000	          0.00000000	          0.00000000	          0.00000000	
          0.51200000	         62.62959513	        511.69329744	        -26.95206969	         -0.62825327	          0.00000000	          0.11088457	          0.00000000	          0.00000000	          0.00000000	          0.00000000	          0.00000000	          0.00000000	          0.00000000	          4.07141430	          0.00000000	          0.00000000	          0.00000000	          0.00000000	
          0.51600000	         65.77282446	        531.82370094	        -24.88518291	         -0.62735624	          0.00000000	          0.11015293	          0.00000000	          0.00000000	          0.00000000	          0.00000000	          0.00000000	          0.00000000	          0.00000000	          4.63341763	          0.00000000	          0.00000000	          0.00000000	          0.00000000	
          0.52000000	         69.12111438	        552.75447325	        -22.66366213	         -0.62648548	          0.00000000	          0.10938026	          0.00000000	          0.00000000	          0.00000000	          0.00000000	          0.00000000	          0.00000000	          0.00000000	          5.21495959	          0.00000000	          0.00000000	          0.00000000	          0.00000000	
          0.52400000	         72.71522494	        574.21519773	        -20.48221560	         -0.62559919	          0.00000000	          0.10859484	          0.00000000	          0.00000000	          0.00000000	          0.00000000	          0.00000000	          0.00000000	          0.00000000	          5.76965898	          0.00000000	          0.00000000	          0.00000000	          0.00000000	
          0.52800000	         76.52140308	        595.92380879	        -18.47563321	         -0.62466756	          0.00000000	          0.10782124	          0.00000000	          0.00000000	          0.00000000	          0.00000000	          0.00000000	          0.00000000	          0.00000000	          6.26092674	          0.00000000	          0.00000000	          0.00000000	          0.00000000	
          0.53200000	         80.43775553	        617.60142051	        -16.72462627	         -0.62367627	          0.00000000	          0.10707943	          0.00000000	          0.00000000	          0.00000000	          0.00000000	          0.00000000	          0.00000000	          0.00000000	          6.66579046	          0.00000000	          0.00000000	          0.00000000	          0.00000000	
          0.53600000	         84.32534406	        638.97312843	        -15.26808602	         -0.62261225	          0.00000000	          0.10638432	          0.00000000	          0.00000000	          0.00000000	          0.00000000	          0.00000000	          0.00000000	          0.00000000	          6.97532985	          0.00000000	          0.00000000	          0.00000000	          0.00000000	
          0.54000000	         88.05512389	        659.77274425	        -14.11439684	         -0.62146466	          0.00000000	          0.10574437	          0.00000000	          0.00000000	          0.00000000	          0.00000000	          0.00000000	          0.00000000	          0.00000000	          7.19203809	          0.00000000	          0.00000000	          0.00000000	          0.00000000	
          0.54400000	         91.55525629	        679.77056182	        -13.25081011	         -0.62023161	          0.00000000	          0.10515811	          0.00000000	          0.00000000	          0.00000000	          0.00000000	          0.00000000	          0.00000000	          0.00000000	          7.32508303	          0.00000000	          0.00000000	          0.00000000	          0.00000000	
          0.54800000	         94.84414200	        698.80547328	        -12.65192442	         -0.61892923	          0.00000000	          0.10461823	          0.00000000	          0.00000000	          0.00000000	          0.00000000	          0.00000000	          0.00000000	          0.00000000	          7.38487425	          0.00000000	          0.00000000	          0.00000000	          0.00000000	
          0.55200000	         98.03840910	        716.78264470	        -12.28822047	         -0.61758812	          0.00000000	          0.10411800	          0.00000000	          0.00000000	          0.00000000	          0.00000000	          0.00000000	          0.00000000	          0.00000000	          7.37848274	          0.00000000	          0.00000000	          0.00000000	          0.00000000	
          0.55600000	        101.33280854	        733.63641340	        -12.13233202	         -0.61623767	          0.00000000	          0.10365530	          0.00000000	          0.00000000	          0.00000000	          0.00000000	          0.00000000	          0.00000000	          0.00000000	          7.30723251	          0.00000000	          0.00000000	          0.00000000	          0.00000000	
          0.56000000	        104.95878768	        749.29047431	        -12.15872672	         -0.61490198	          0.00000000	          0.10323330	          0.00000000	          0.00000000	          0.00000000	          0.00000000	          0.00000000	          0.00000000	          0.00000000	          7.16716733	          0.00000000	          0.00000000	          0.00000000	          0.00000000	
